arm28_CheckCMCwithFD_states
version=1
nRows=13
nColumns=21
inDegrees=yes

# SIMM Motion File Header:
name arm28_CheckCMCwithFD_states
datacolumns 21
datarows 13
otherdata 1
range 1.93509166 2.04772977
endheader
time	r_shoulder_elev	r_elbow_flex	r_shoulder_elev_u	r_elbow_flex_u	TRIlong.activation	TRIlong.fiber_length	TRIlat.activation	TRIlat.fiber_length	TRImed.activation	TRImed.fiber_length	BIClong.activation	BIClong.fiber_length	BICshort.activation	BICshort.fiber_length	BRA.activation	BRA.fiber_length	DeltAnt.activation	DeltAnt.fiber_length	DeltPost.activation	DeltPost.fiber_length
      1.93509166	      0.20209748	     19.48816017	      0.08603661	     -0.24990199	      0.05000000	      0.14378586	      0.05000000	      0.07764896	      0.05000000	      0.07270554	      0.09647740	      0.13960714	      0.10952101	      0.14155748	      0.06988500	      0.08633359	      0.05000000	      0.16184814	      0.10719967	      0.10854613
      1.94297675	      0.20277631	     19.48618780	      0.08619704	     -0.25042505	      0.05000000	      0.14378549	      0.05000000	      0.07764816	      0.05000000	      0.07270474	      0.09647520	      0.13960757	      0.10951593	      0.14155802	      0.06988396	      0.08633373	      0.05000000	      0.16184774	      0.10720056	      0.10854672
      1.95086183	      0.20345383	     19.48421721	      0.08571659	     -0.24955593	      0.05000000	      0.14378512	      0.05000000	      0.07764735	      0.05000000	      0.07270394	      0.09647498	      0.13960803	      0.10951351	      0.14155860	      0.06988310	      0.08633387	      0.05000000	      0.16184734	      0.10720044	      0.10854732
      1.96204866	      0.20441375	     19.48142175	      0.08608614	     -0.25056704	      0.05000000	      0.14378459	      0.05000000	      0.07764621	      0.05000000	      0.07270281	      0.09649209	      0.13960866	      0.10953995	      0.14155939	      0.06988261	      0.08633408	      0.05000000	      0.16184677	      0.10720033	      0.10854816
      1.97323550	      0.20537490	     19.47862470	      0.08507778	     -0.24808931	      0.05000000	      0.14378406	      0.05000000	      0.07764508	      0.05000000	      0.07270167	      0.09648807	      0.13960930	      0.10952942	      0.14156019	      0.06988091	      0.08633428	      0.05000000	      0.16184619	      0.10720119	      0.10854900
      1.98116410	      0.20605090	     19.47665524	      0.08562396	     -0.24916693	      0.05000000	      0.14378369	      0.05000000	      0.07764427	      0.05000000	      0.07270087	      0.09648477	      0.13960978	      0.10952153	      0.14156081	      0.06987959	      0.08633443	      0.05000000	      0.16184579	      0.10720143	      0.10854959
      1.98909269	      0.20673002	     19.47467736	      0.08566664	     -0.24980950	      0.05000000	      0.14378331	      0.05000000	      0.07764347	      0.05000000	      0.07270007	      0.09649194	      0.13961026	      0.10952985	      0.14156144	      0.06987921	      0.08633457	      0.05000000	      0.16184539	      0.10720147	      0.10855019
      2.00066738	      0.20772050	     19.47178208	      0.08575345	     -0.25096306	      0.05000000	      0.14378277	      0.05000000	      0.07764229	      0.05000000	      0.07269890	      0.09649748	      0.13961093	      0.10953831	      0.14156229	      0.06987861	      0.08633478	      0.05000000	      0.16184480	      0.10720250	      0.10855105
      2.01007986	      0.20852388	     19.46942351	      0.08483948	     -0.25002511	      0.05000000	      0.14378232	      0.05000000	      0.07764133	      0.05000000	      0.07269794	      0.09650168	      0.13961149	      0.10954103	      0.14156300	      0.06987776	      0.08633495	      0.05000000	      0.16184432	      0.10720261	      0.10855176
      2.01949233	      0.20932321	     19.46706373	      0.08531808	     -0.25197323	      0.05000000	      0.14378187	      0.05000000	      0.07764037	      0.05000000	      0.07269698	      0.09651785	      0.13961202	      0.10956839	      0.14156367	      0.06987734	      0.08633512	      0.05000000	      0.16184384	      0.10720245	      0.10855246
      2.02890481	      0.21012429	     19.46469423	      0.08461844	     -0.25085063	      0.05000000	      0.14378141	      0.05000000	      0.07763941	      0.05000000	      0.07269603	      0.09651921	      0.13961254	      0.10956979	      0.14156430	      0.06987645	      0.08633529	      0.05000000	      0.16184336	      0.10720269	      0.10855316
      2.03831729	      0.21091994	     19.46233522	      0.08482512	     -0.25121835	      0.05000000	      0.14378096	      0.05000000	      0.07763844	      0.05000000	      0.07269507	      0.09651520	      0.13961310	      0.10955995	      0.14156501	      0.06987491	      0.08633547	      0.05000000	      0.16184289	      0.10720348	      0.10855386
      2.04772977	      0.21171754	     19.45997066	      0.08433694	     -0.25068061	      0.05000000	      0.14378050	      0.05000000	      0.07763748	      0.05000000	      0.07269411	      0.09651967	      0.13961368	      0.10956441	      0.14156575	      0.06987416	      0.08633564	      0.05000000	      0.16184241	      0.10720360	      0.10855455
